<svg xmlns="http://www.w3.org/2000/svg" viewBox="0 0 24 24" fill="#000">
  <path d="M17 7h-1.41l-2-2H17c2.76 0 5 2.24 5 5 0 1.52-.68 2.88-1.76 3.8l-1.42-1.42C19.56 11.9 20 11 20 10c0-1.66-1.34-3-3-3zm-1 10h-3.17l-2-2H16c1.66 0 3-1.34 3-3 0-.59-.17-1.14-.46-1.61l1.49-1.49C20.66 9.69 21 10.8 21 12c0 2.76-2.24 5-5 5zm-8.59-2H7c-2.76 0-5-2.24-5-5 0-1.52.68-2.88 1.76-3.8l1.42 1.42C4.44 8.1 4 9 4 10c0 1.66 1.34 3 3 3h1.17l2 2zm1.41-10 2 2H8c-1.66 0-3 1.34-3 3 0 .59.17 1.14.46 1.61L3.97 12.1C3.34 11.31 3 10.2 3 9c0-2.76 2.24-5 5-5h2.83zm9.19 14.19L4.81 3.98 3.39 5.39 18.6 20.61z" />
</svg>
