<svg xmlns="http://www.w3.org/2000/svg" height="24" viewBox="0 0 24 24" width="24" fill="currentColor">
  <path d="M12 2C6.48 2 2 6.48 2 12s4.48 10 10 10 10-4.48 10-10S17.52 2 12 2zm0 2c1.51 0 2.9.5 4.02 1.34l-1.62 2.73h-4.8L8 5.34C9.1 4.5 10.49 4 12 4zm-6.45 3.6l1.95 3.38-1.1 3.86L3.5 9.53A7.96 7.96 0 0 1 5.55 7.6zm6.45 12.4c-1.44 0-2.79-.39-3.96-1.07l1.19-3.6h5.54l1.19 3.6C14.79 19.61 13.44 20 12 20zm6.46-3.11-1.1-3.86 1.95-3.38a7.96 7.96 0 0 1 2.05 1.93l-2.9 5.31zm-2.18-2.05-4.28 0-1.32-4.08 3.46-2.52 3.46 2.52-1.32 4.08z"/>
</svg>
